<?xml version="1.0" encoding="iso-8859-1"?>
<!DOCTYPE svg PUBLIC "-//W3C//DTD SVG 1.1//EN" "http://www.w3.org/Graphics/SVG/1.1/DTD/svg11.dtd">
<svg 
 version="1.1" xmlns="http://www.w3.org/2000/svg" xmlns:xlink="http://www.w3.org/1999/xlink" x="0px" y="0px" width="512px"
	 height="512px" viewBox="0 0 512 512" enable-background="new 0 0 512 512" xml:space="preserve"
><g id="e6c6b53d3c8160b22dad35a0f70a9dbf"><g></g><g fill="#ffffff"><path display="inline" d="M400.859,477.692l-22.498,13.516c-8.944,5.371-24.721,10.737-35.063,11.916l-71.963,8.233
		c-10.346,1.187-23.309-5.144-28.817-14.061L69.821,217.665c-5.504-8.921-10.038-24.817-10.073-35.331L59.461,86.97
		c-0.035-10.512,7.255-23.51,16.203-28.88l43.189-25.934c8.944-5.372,16.288-1.165,16.318,9.347l0.272,89.523
		c0.031,10.514,4.564,26.414,10.072,35.331L327.38,460.833c5.509,8.921,18.472,15.255,28.817,14.068l42.129-4.824
		C408.664,468.895,409.804,472.326,400.859,477.692z M437.892,446.315l-71.964,8.237c-10.341,1.183-23.309-5.144-28.813-14.064
		L164.414,160.857c-5.504-8.921-10.038-24.821-10.073-35.331l-0.288-95.364c-0.035-10.512,8.399-20.082,18.74-21.264l71.967-8.234
		c10.341-1.184,24.556,4.185,31.592,11.931l84.366,92.884c7.036,7.748,14.929,22.412,17.531,32.584l73.702,287.6
		C454.559,435.84,448.236,445.133,437.892,446.315z M345.269,251.948l-38.598-79.252c-4.596-9.436,0.054-18.499,10.333-20.146
		l5.125-0.821c10.276-1.651,14.929-10.71,10.334-20.146l-0.073-0.153c-4.599-9.436-16.768-15.804-27.044-14.157l-5.12,0.822
		c-10.276,1.65-22.445-4.722-27.036-14.153l-6.022-12.358c-4.595-9.432-14.722-16.128-22.51-14.881
		c-7.789,1.25-10.403,9.988-5.809,19.42l6.023,12.36c4.591,9.428-0.062,18.495-10.338,20.146l-5.098,0.814
		c-10.276,1.65-14.928,10.713-10.333,20.145l0.077,0.154c4.591,9.435,16.756,15.808,27.036,14.157l5.094-0.817
		c10.275-1.647,22.444,4.721,27.039,14.153l38.598,79.253c4.591,9.435,14.726,16.13,22.51,14.878
		C347.245,270.117,349.863,261.38,345.269,251.948z"></path></g></g></svg>