<?xml version="1.0" encoding="iso-8859-1"?>
<!DOCTYPE svg PUBLIC "-//W3C//DTD SVG 1.1//EN" "http://www.w3.org/Graphics/SVG/1.1/DTD/svg11.dtd">
<svg 
 version="1.1" xmlns="http://www.w3.org/2000/svg" xmlns:xlink="http://www.w3.org/1999/xlink" x="0px" y="0px" width="512px"
	 height="512px" viewBox="0 0 512 512" enable-background="new 0 0 512 512" xml:space="preserve"
><g id="e6c6b53d3c8160b22dad35a0f709d2a3"><g></g><g fill="#ffffff"><path display="inline" d="M358.239,279.79c-12.8-20.352-5.546-49.913-5.546-78.542c0-99.646-14.718-200.748-145.999-200.748
		C82.479,0.5,42.446,74.037,42.446,164.748c0,70.74,20.396,129.862,49.122,178.538c23.878,40.46-113.776,169.128,5.628,168.209
		c30.266-0.235,80.289-46.006,125.617-45.262c38.766,0.635,20.381,27.012,111.63,27.012s36.499-54.75,55.993-81.957
		c15.958-22.273,52.169-6.619,71.756-45.792C498.691,292.497,389.192,328.996,358.239,279.79z M152.376,176.588
		c-11.734,27.866-36.311,44.116-54.885,36.294c-18.578-7.821-24.127-36.756-12.397-64.624
		c11.734-27.867,36.311-44.117,54.889-36.295C158.558,119.785,164.111,148.719,152.376,176.588z M188.445,310.747
		c-10.08,0-18.25-20.428-18.25-45.625c0-25.196,8.169-45.624,18.25-45.624c10.081,0,18.25,20.428,18.25,45.624
		C206.695,290.319,198.525,310.747,188.445,310.747z M260.731,195.003c-18.667,7.604-43.051-8.931-54.461-36.929
		c-11.41-28.002-5.521-56.872,13.146-64.477c18.667-7.604,43.05,8.929,54.46,36.933C285.282,158.532,279.397,187.4,260.731,195.003z
		"></path></g></g></svg>