<svg xmlns="http://www.w3.org/2000/svg" width="512" height="512" xml:space="preserve"><g fill="#6f70ff"><path d="m511.441 216.377-9.585-62.367-62.387-9.606-9.589-62.368-62.361-9.581-9.581-62.357L295.581.516l-7.194 7.196-16.784 16.784-21.599 21.597L24.499 271.599.517 295.581l-.017.017.058.024 9.59 62.37 62.382 9.606 9.59 62.365 62.357 9.581 9.585 62.357 62.357 9.581 23.978-23.979 225.509-225.508 21.595-21.596 16.788-16.788 7.194-7.194.017-.017-.059-.023zm-417.27 33.727L250.103 94.171l167.722 167.726-155.924 155.928-167.73-167.721zm236.35 22.625-51.49 7.481L256 326.874l-23.03-46.663-51.491-7.481 37.261-36.316-8.795-51.287L256 209.341l46.056-24.215-8.795 51.287 37.26 36.316z"/></g></svg>