<?xml version="1.0" encoding="iso-8859-1"?>
<!DOCTYPE svg PUBLIC "-//W3C//DTD SVG 1.1//EN" "http://www.w3.org/Graphics/SVG/1.1/DTD/svg11.dtd">
<svg 
 version="1.1" xmlns="http://www.w3.org/2000/svg" xmlns:xlink="http://www.w3.org/1999/xlink" x="0px" y="0px" width="512px"
	 height="512px" viewBox="0 0 512 512" enable-background="new 0 0 512 512" xml:space="preserve"
><g id="e6c6b53d3c8160b22dad35a0f70ad4ab"><g></g><g fill="#ffffff"><path display="inline" d="M481.19,190.057c-0.085-1.581-0.223-3.124-0.479-4.584c-1.973-11.341-41.309,6.882-106.714,22.228
		l-9.073,2.605l-55.879-7.617L360,200.521l-40.543-47.123c-12.492-14.521-20.953-41.261-18.802-59.425
		c2.147-18.165,19.191-26.768,37.879-19.12l15.224,6.233c2.411,0.986,4.563,1.761,6.473,2.349c0.591,1.655,1.375,4.282,2.308,8.457
		c2.073,9.285-0.899,15.44-1.015,15.667c-1.033,2.003-0.249,4.467,1.754,5.502c1.921,0.994,4.27,0.307,5.369-1.519
		c0.045-0.076,0.089-0.155,0.13-0.235c0.187-0.357,4.478-8.872,1.729-21.195c-0.35-1.563-0.691-2.973-1.022-4.249
		c0.714,0.452,1.482,0.953,2.315,1.513c9.159,6.122,23.172,16.949,23.313,17.056c1.784,1.382,4.348,1.051,5.729-0.732
		c0.097-0.128,0.187-0.26,0.268-0.394c1.052-1.752,0.654-4.053-1.003-5.33c-0.542-0.424-12.727-9.834-21.986-16.181
		c0.903-0.242,1.836-0.513,2.806-0.829c9.97-3.234,14.205-7.71,15.989-10.675c0.82-1.362,1.122-2.402,1.222-2.854l-7.966-1.783
		c0,0,0.007-0.068,0.052-0.197c-0.015,0.043-1.609,4.437-11.816,7.744c-5.388,1.748-9.159,1.988-11.578,1.804
		c-0.339-0.154-0.632-0.262-0.94-0.388c-1.074-1.181-2.285-2.435-3.73-3.802L297.738,9.901
		c-14.064-13.301-36.936-12.375-50.822,2.059l-80.335,83.492c-3.998,4.154-7.885,9.377-11.452,15.129l43.675,5.949l-48.238,2.051
		c-6.518,12.437-11.244,26.182-12.195,37.072l-6.904,79.004c-61.965,7.712-102.482,18.224-100.594,29.076
		c1.902,10.934,23.673,8.671,55.035,7.409c-11.515,24.986-17.342,69.914-15.22,99.577c5.276,73.789,55.566,131.082,113.116,126.464
		c2.687-0.212,5.432-0.58,8.204-1.089c16.506,10.359,36.481,15.405,60.88,15.405c18.761,0,37.448-4.975,54.31-14.428
		c3.122,0.498,6.217,0.817,9.245,0.951c1.204,0.052,2.412,0.029,3.604,0.078c56.022,0,106.268-55.723,114.38-126.854
		c3.393-29.749-1.085-75.387-12.363-100.593c38.659-22.345,55.585-50,58.673-71.252l-33.624,12.243L481.19,190.057z
		 M411.746,368.662c-6.707,58.787-47.841,106.613-91.702,106.609c-0.869,0-1.746-0.019-2.612-0.056
		c-3.24-0.142-6.487-0.568-9.925-1.308l-4.459-0.959l-3.894,2.382c-14.47,8.851-30.035,13.34-46.266,13.34
		c-21.949,0-38.455-4.463-51.947-14.05l-4.258-3.028l-5.072,1.245c-3.34,0.817-6.488,1.338-9.624,1.59
		c-44.054,3.508-84.218-45.08-88.529-105.335c-2.173-30.406,5.176-75.646,18.743-98.479c12.418,0.078,25.672,0.725,39.335,2.543
		l50.761-19.837l-32.446,22.968c12.991,2.769,26.17,6.781,39.18,12.537c34.501,15.249,81.993,20.103,118.266,13.793
		c29.366-5.109,53.697-12.56,73.714-21.366C410.68,305.757,414.648,343.212,411.746,368.662z M362.296,377.825
		c1.762-2.62,5.303-3.312,7.915-1.568c2.62,1.75,3.326,5.287,1.579,7.907c-0.725,1.085-8.892,13.039-24.624,25.962l4.886,4.887
		c2.229,2.229,2.229,5.841,0,8.07c-1.114,1.115-2.575,1.672-4.035,1.672s-2.921-0.557-4.035-1.672l-5.99-5.989
		c-11.039,7.747-24.813,15.189-41.342,20.239v15.328c0,3.15-2.557,5.707-5.707,5.707c-3.151,0-5.708-2.557-5.708-5.707v-12.337
		c-9.921,2.166-20.686,3.456-32.342,3.456c-11.891,0-22.626-0.873-32.343-2.39v11.271c0,3.15-2.557,5.707-5.707,5.707
		c-3.151,0-5.708-2.557-5.708-5.707v-13.463c-19.091-4.336-33.624-11.292-44.56-18.887l-2.772,2.771
		c-1.115,1.115-2.575,1.672-4.035,1.672c-1.46,0-2.921-0.557-4.036-1.672c-2.229-2.229-2.229-5.841,0-8.07l1.78-1.78
		c-16.609-14.61-21.778-29.21-22.183-30.429c-0.996-2.991,0.617-6.224,3.608-7.22c2.984-1.003,6.209,0.609,7.212,3.586
		c0.36,1.052,4.886,13.433,19.441,25.984l9.167-9.167c2.229-2.229,5.841-2.229,8.071,0s2.229,5.842,0,8.071l-8.037,8.037
		c9.152,6.049,21.017,11.627,36.344,15.395v-8.442c0-3.151,2.557-5.708,5.708-5.708c3.15,0,5.707,2.557,5.707,5.708v10.765
		c9.598,1.605,20.307,2.553,32.343,2.553c11.712,0,22.485-1.449,32.342-3.846v-9.472c0-3.151,2.557-5.708,5.708-5.708
		c3.15,0,5.707,2.557,5.707,5.708v6.149c12.86-4.377,23.855-10.296,32.963-16.483l-4.656-4.655c-2.229-2.229-2.229-5.842,0-8.071
		s5.842-2.229,8.071,0l5.867,5.867C354.256,389.519,362.129,378.074,362.296,377.825z M148.262,333.436
		c0-2.742,0.543-5.388,1.509-7.899l74.457,5.915c0.06,0.658,0.134,1.315,0.134,1.984c0,15.763-17.033,28.538-38.05,28.538
		S148.262,349.198,148.262,333.436z M281.57,331.451l74.457-5.915c0.959,2.512,1.509,5.157,1.509,7.899
		c0,15.763-17.033,28.538-38.05,28.538s-38.05-12.775-38.05-28.538C281.437,332.767,281.512,332.109,281.57,331.451z"></path></g></g></svg>