<?xml version="1.0" encoding="iso-8859-1"?>
<!DOCTYPE svg PUBLIC "-//W3C//DTD SVG 1.1//EN" "http://www.w3.org/Graphics/SVG/1.1/DTD/svg11.dtd">
<svg 
 version="1.1" xmlns="http://www.w3.org/2000/svg" xmlns:xlink="http://www.w3.org/1999/xlink" x="0px" y="0px" width="512px"
	 height="512px" viewBox="0 0 512 512" enable-background="new 0 0 512 512" xml:space="preserve"
><g id="e6c6b53d3c8160b22dad35a0f70a3347"><g></g><g fill="#ffffff"><path display="inline" d="M502.268,205.856c0,0-35.77,6.337-57.331,70.518c-14.146,42.13,15.79,77.184,15.79,77.184
		s-55.392-12.494-99.141,6.874c-20.243,8.954-33.326,19.452-43.627,30.162c-17.315,40.765-51.334,72.844-61.959,72.844
		s-44.644-32.079-61.959-72.844c-10.301-10.71-23.383-21.208-43.627-30.162c-43.749-19.368-99.141-6.874-99.141-6.874
		s29.937-35.054,15.79-77.184c-21.562-64.181-57.331-70.518-57.331-70.518s27.691-15.361,27.691-87.696
		C37.423,70.463,0.5,48.925,0.5,48.925s24.169-4.47,80.663,17.977c43.848,17.423,80.884,69.722,80.884,69.722
		s-35.388,4.614-17.546,85.842c10.929,49.732,28.84,69.91,44.178,77.617c4.915-18.563,13.172-31.345,23.539-39.748
		c-6.544-8.959-10.451-19.966-10.451-31.909c0-8.889,2.18-17.259,5.974-24.66c-5.438-8.106-5.814-20.427-5.894-21.27
		c-0.579-12.734,1.902-23.529,9.486-35.713c1.62,0.725,3.202,1.506,4.736,2.326c10.823,5.771,19.575,13.813,25.309,23.266
		c0.132,0.235,0.81,1.521,1.629,3.451c4.171-1.031,8.507-1.633,12.993-1.633s8.822,0.603,12.993,1.633
		c0.819-1.93,1.497-3.215,1.629-3.451c5.734-9.453,14.486-17.494,25.31-23.266c1.534-0.819,3.116-1.601,4.735-2.326
		c7.585,12.184,10.065,22.979,9.486,35.713c-0.08,0.843-0.452,13.163-5.894,21.27c3.794,7.401,5.974,15.771,5.974,24.66
		c0,11.943-3.907,22.95-10.451,31.909c10.366,8.403,18.624,21.185,23.539,39.748c15.338-7.707,33.246-27.885,44.178-77.617
		c17.842-81.228-17.546-85.842-17.546-85.842s37.036-52.298,80.884-69.722C487.33,44.456,511.5,48.925,511.5,48.925
		s-36.923,21.538-36.923,69.235C474.577,190.495,502.268,205.856,502.268,205.856z"></path></g></g></svg>